<svg version="1.1" xmlns="http://www.w3.org/2000/svg" viewBox="0 0 693.0693640085892 693.0693640085901" width="2079.2080920257677" height="2079.2080920257704">
  <!-- svg-source:excalidraw -->
  
  <defs>
    <style class="style-fonts">
      
    </style>
    
  </defs>
  <g stroke-linecap="round" transform="translate(9.999999999999545 10.000000000000227) rotate(0 336.53468200429484 336.53468200429495)"><path d="M673.07 336.53 C673.07 342.41, 672.92 348.28, 672.61 354.15 C672.3 360.01, 671.84 365.87, 671.23 371.71 C670.61 377.55, 669.84 383.38, 668.93 389.18 C668.01 394.98, 666.94 400.76, 665.72 406.5 C664.49 412.25, 663.12 417.97, 661.6 423.64 C660.08 429.31, 658.41 434.95, 656.6 440.53 C654.78 446.11, 652.82 451.66, 650.72 457.14 C648.61 462.62, 646.36 468.05, 643.97 473.42 C641.59 478.78, 639.05 484.09, 636.39 489.32 C633.72 494.55, 630.92 499.72, 627.98 504.8 C625.05 509.89, 621.97 514.9, 618.78 519.82 C615.58 524.75, 612.25 529.6, 608.8 534.34 C605.35 539.09, 601.77 543.76, 598.07 548.32 C594.38 552.89, 590.56 557.36, 586.63 561.72 C582.7 566.08, 578.65 570.35, 574.5 574.5 C570.35 578.65, 566.08 582.7, 561.72 586.63 C557.36 590.56, 552.89 594.38, 548.32 598.07 C543.76 601.77, 539.09 605.35, 534.34 608.8 C529.6 612.25, 524.75 615.58, 519.82 618.78 C514.9 621.97, 509.89 625.05, 504.8 627.98 C499.72 630.92, 494.55 633.72, 489.32 636.39 C484.09 639.05, 478.78 641.59, 473.42 643.97 C468.05 646.36, 462.62 648.61, 457.14 650.72 C451.66 652.82, 446.11 654.78, 440.53 656.6 C434.95 658.41, 429.31 660.08, 423.64 661.6 C417.97 663.12, 412.25 664.49, 406.5 665.72 C400.76 666.94, 394.98 668.01, 389.18 668.93 C383.38 669.84, 377.55 670.61, 371.71 671.23 C365.87 671.84, 360.01 672.3, 354.15 672.61 C348.28 672.92, 342.41 673.07, 336.53 673.07 C330.66 673.07, 324.78 672.92, 318.92 672.61 C313.06 672.3, 307.2 671.84, 301.36 671.23 C295.52 670.61, 289.69 669.84, 283.89 668.93 C278.09 668.01, 272.31 666.94, 266.57 665.72 C260.82 664.49, 255.1 663.12, 249.43 661.6 C243.76 660.08, 238.12 658.41, 232.54 656.6 C226.96 654.78, 221.41 652.82, 215.93 650.72 C210.45 648.61, 205.02 646.36, 199.65 643.97 C194.29 641.59, 188.98 639.05, 183.75 636.39 C178.52 633.72, 173.35 630.92, 168.27 627.98 C163.18 625.05, 158.17 621.97, 153.24 618.78 C148.32 615.58, 143.47 612.25, 138.72 608.8 C133.97 605.35, 129.31 601.77, 124.75 598.07 C120.18 594.38, 115.71 590.56, 111.35 586.63 C106.99 582.7, 102.72 578.65, 98.57 574.5 C94.42 570.35, 90.37 566.08, 86.44 561.72 C82.51 557.36, 78.69 552.89, 75 548.32 C71.3 543.76, 67.72 539.09, 64.27 534.34 C60.82 529.6, 57.49 524.75, 54.29 519.82 C51.1 514.9, 48.02 509.89, 45.09 504.8 C42.15 499.72, 39.35 494.55, 36.68 489.32 C34.01 484.09, 31.48 478.78, 29.09 473.42 C26.71 468.05, 24.46 462.62, 22.35 457.14 C20.25 451.66, 18.29 446.11, 16.47 440.53 C14.66 434.95, 12.99 429.31, 11.47 423.64 C9.95 417.97, 8.57 412.25, 7.35 406.5 C6.13 400.76, 5.06 394.98, 4.14 389.18 C3.22 383.38, 2.46 377.55, 1.84 371.71 C1.23 365.87, 0.77 360.01, 0.46 354.15 C0.15 348.28, 0 342.41, 0 336.53 C0 330.66, 0.15 324.78, 0.46 318.92 C0.77 313.06, 1.23 307.2, 1.84 301.36 C2.46 295.52, 3.22 289.69, 4.14 283.89 C5.06 278.09, 6.13 272.31, 7.35 266.57 C8.57 260.82, 9.95 255.1, 11.47 249.43 C12.99 243.76, 14.66 238.12, 16.47 232.54 C18.29 226.96, 20.25 221.41, 22.35 215.93 C24.46 210.45, 26.71 205.02, 29.09 199.65 C31.48 194.29, 34.01 188.98, 36.68 183.75 C39.35 178.52, 42.15 173.35, 45.09 168.27 C48.02 163.18, 51.1 158.17, 54.29 153.24 C57.49 148.32, 60.82 143.47, 64.27 138.72 C67.72 133.97, 71.3 129.31, 75 124.75 C78.69 120.18, 82.51 115.71, 86.44 111.35 C90.37 106.99, 94.42 102.72, 98.57 98.57 C102.72 94.42, 106.99 90.37, 111.35 86.44 C115.71 82.51, 120.18 78.69, 124.75 75 C129.31 71.3, 133.97 67.72, 138.72 64.27 C143.47 60.82, 148.32 57.49, 153.24 54.29 C158.17 51.1, 163.18 48.02, 168.27 45.09 C173.35 42.15, 178.52 39.35, 183.75 36.68 C188.98 34.01, 194.29 31.48, 199.65 29.09 C205.02 26.71, 210.45 24.46, 215.93 22.35 C221.41 20.25, 226.96 18.29, 232.54 16.47 C238.12 14.66, 243.76 12.99, 249.43 11.47 C255.1 9.95, 260.82 8.57, 266.57 7.35 C272.31 6.13, 278.09 5.06, 283.89 4.14 C289.69 3.22, 295.52 2.46, 301.36 1.84 C307.2 1.23, 313.06 0.77, 318.92 0.46 C324.78 0.15, 330.66 0, 336.53 0 C342.41 0, 348.28 0.15, 354.15 0.46 C360.01 0.77, 365.87 1.23, 371.71 1.84 C377.55 2.46, 383.38 3.22, 389.18 4.14 C394.98 5.06, 400.76 6.13, 406.5 7.35 C412.25 8.57, 417.97 9.95, 423.64 11.47 C429.31 12.99, 434.95 14.66, 440.53 16.47 C446.11 18.29, 451.66 20.25, 457.14 22.35 C462.62 24.46, 468.05 26.71, 473.42 29.09 C478.78 31.48, 484.09 34.01, 489.32 36.68 C494.55 39.35, 499.72 42.15, 504.8 45.09 C509.89 48.02, 514.9 51.1, 519.82 54.29 C524.75 57.49, 529.6 60.82, 534.34 64.27 C539.09 67.72, 543.76 71.3, 548.32 75 C552.89 78.69, 557.36 82.51, 561.72 86.44 C566.08 90.37, 570.35 94.42, 574.5 98.57 C578.65 102.72, 582.7 106.99, 586.63 111.35 C590.56 115.71, 594.38 120.18, 598.07 124.75 C601.77 129.31, 605.35 133.97, 608.8 138.72 C612.25 143.47, 615.58 148.32, 618.78 153.24 C621.97 158.17, 625.05 163.18, 627.98 168.27 C630.92 173.35, 633.72 178.52, 636.39 183.75 C639.05 188.98, 641.59 194.29, 643.97 199.65 C646.36 205.02, 648.61 210.45, 650.72 215.93 C652.82 221.41, 654.78 226.96, 656.6 232.54 C658.41 238.12, 660.08 243.76, 661.6 249.43 C663.12 255.1, 664.49 260.82, 665.72 266.57 C666.94 272.31, 668.01 278.09, 668.93 283.89 C669.84 289.69, 670.61 295.52, 671.23 301.36 C671.84 307.2, 672.3 313.06, 672.61 318.92 C672.92 324.78, 673.07 330.66, 673.07 336.53" stroke="none" stroke-width="0" fill="#228be6"></path><path d="M673.07 336.53 C673.07 342.41, 672.92 348.28, 672.61 354.15 C672.3 360.01, 671.84 365.87, 671.23 371.71 C670.61 377.55, 669.84 383.38, 668.93 389.18 C668.01 394.98, 666.94 400.76, 665.72 406.5 C664.49 412.25, 663.12 417.97, 661.6 423.64 C660.08 429.31, 658.41 434.95, 656.6 440.53 C654.78 446.11, 652.82 451.66, 650.72 457.14 C648.61 462.62, 646.36 468.05, 643.97 473.42 C641.59 478.78, 639.05 484.09, 636.39 489.32 C633.72 494.55, 630.92 499.72, 627.98 504.8 C625.05 509.89, 621.97 514.9, 618.78 519.82 C615.58 524.75, 612.25 529.6, 608.8 534.34 C605.35 539.09, 601.77 543.76, 598.07 548.32 C594.38 552.89, 590.56 557.36, 586.63 561.72 C582.7 566.08, 578.65 570.35, 574.5 574.5 C570.35 578.65, 566.08 582.7, 561.72 586.63 C557.36 590.56, 552.89 594.38, 548.32 598.07 C543.76 601.77, 539.09 605.35, 534.34 608.8 C529.6 612.25, 524.75 615.58, 519.82 618.78 C514.9 621.97, 509.89 625.05, 504.8 627.98 C499.72 630.92, 494.55 633.72, 489.32 636.39 C484.09 639.05, 478.78 641.59, 473.42 643.97 C468.05 646.36, 462.62 648.61, 457.14 650.72 C451.66 652.82, 446.11 654.78, 440.53 656.6 C434.95 658.41, 429.31 660.08, 423.64 661.6 C417.97 663.12, 412.25 664.49, 406.5 665.72 C400.76 666.94, 394.98 668.01, 389.18 668.93 C383.38 669.84, 377.55 670.61, 371.71 671.23 C365.87 671.84, 360.01 672.3, 354.15 672.61 C348.28 672.92, 342.41 673.07, 336.53 673.07 C330.66 673.07, 324.78 672.92, 318.92 672.61 C313.06 672.3, 307.2 671.84, 301.36 671.23 C295.52 670.61, 289.69 669.84, 283.89 668.93 C278.09 668.01, 272.31 666.94, 266.57 665.72 C260.82 664.49, 255.1 663.12, 249.43 661.6 C243.76 660.08, 238.12 658.41, 232.54 656.6 C226.96 654.78, 221.41 652.82, 215.93 650.72 C210.45 648.61, 205.02 646.36, 199.65 643.97 C194.29 641.59, 188.98 639.05, 183.75 636.39 C178.52 633.72, 173.35 630.92, 168.27 627.98 C163.18 625.05, 158.17 621.97, 153.24 618.78 C148.32 615.58, 143.47 612.25, 138.72 608.8 C133.97 605.35, 129.31 601.77, 124.75 598.07 C120.18 594.38, 115.71 590.56, 111.35 586.63 C106.99 582.7, 102.72 578.65, 98.57 574.5 C94.42 570.35, 90.37 566.08, 86.44 561.72 C82.51 557.36, 78.69 552.89, 75 548.32 C71.3 543.76, 67.72 539.09, 64.27 534.34 C60.82 529.6, 57.49 524.75, 54.29 519.82 C51.1 514.9, 48.02 509.89, 45.09 504.8 C42.15 499.72, 39.35 494.55, 36.68 489.32 C34.01 484.09, 31.48 478.78, 29.09 473.42 C26.71 468.05, 24.46 462.62, 22.35 457.14 C20.25 451.66, 18.29 446.11, 16.47 440.53 C14.66 434.95, 12.99 429.31, 11.47 423.64 C9.95 417.97, 8.57 412.25, 7.35 406.5 C6.13 400.76, 5.06 394.98, 4.14 389.18 C3.22 383.38, 2.46 377.55, 1.84 371.71 C1.23 365.87, 0.77 360.01, 0.46 354.15 C0.15 348.28, 0 342.41, 0 336.53 C0 330.66, 0.15 324.78, 0.46 318.92 C0.77 313.06, 1.23 307.2, 1.84 301.36 C2.46 295.52, 3.22 289.69, 4.14 283.89 C5.06 278.09, 6.13 272.31, 7.35 266.57 C8.57 260.82, 9.95 255.1, 11.47 249.43 C12.99 243.76, 14.66 238.12, 16.47 232.54 C18.29 226.96, 20.25 221.41, 22.35 215.93 C24.46 210.45, 26.71 205.02, 29.09 199.65 C31.48 194.29, 34.01 188.98, 36.68 183.75 C39.35 178.52, 42.15 173.35, 45.09 168.27 C48.02 163.18, 51.1 158.17, 54.29 153.24 C57.49 148.32, 60.82 143.47, 64.27 138.72 C67.72 133.97, 71.3 129.31, 75 124.75 C78.69 120.18, 82.51 115.71, 86.44 111.35 C90.37 106.99, 94.42 102.72, 98.57 98.57 C102.72 94.42, 106.99 90.37, 111.35 86.44 C115.71 82.51, 120.18 78.69, 124.75 75 C129.31 71.3, 133.97 67.72, 138.72 64.27 C143.47 60.82, 148.32 57.49, 153.24 54.29 C158.17 51.1, 163.18 48.02, 168.27 45.09 C173.35 42.15, 178.52 39.35, 183.75 36.68 C188.98 34.01, 194.29 31.48, 199.65 29.09 C205.02 26.71, 210.45 24.46, 215.93 22.35 C221.41 20.25, 226.96 18.29, 232.54 16.47 C238.12 14.66, 243.76 12.99, 249.43 11.47 C255.1 9.95, 260.82 8.57, 266.57 7.35 C272.31 6.13, 278.09 5.06, 283.89 4.14 C289.69 3.22, 295.52 2.46, 301.36 1.84 C307.2 1.23, 313.06 0.77, 318.92 0.46 C324.78 0.15, 330.66 0, 336.53 0 C342.41 0, 348.28 0.15, 354.15 0.46 C360.01 0.77, 365.87 1.23, 371.71 1.84 C377.55 2.46, 383.38 3.22, 389.18 4.14 C394.98 5.06, 400.76 6.13, 406.5 7.35 C412.25 8.57, 417.97 9.95, 423.64 11.47 C429.31 12.99, 434.95 14.66, 440.53 16.47 C446.11 18.29, 451.66 20.25, 457.14 22.35 C462.62 24.46, 468.05 26.71, 473.42 29.09 C478.78 31.48, 484.09 34.01, 489.32 36.68 C494.55 39.35, 499.72 42.15, 504.8 45.09 C509.89 48.02, 514.9 51.1, 519.82 54.29 C524.75 57.49, 529.6 60.82, 534.34 64.27 C539.09 67.72, 543.76 71.3, 548.32 75 C552.89 78.69, 557.36 82.51, 561.72 86.44 C566.08 90.37, 570.35 94.42, 574.5 98.57 C578.65 102.72, 582.7 106.99, 586.63 111.35 C590.56 115.71, 594.38 120.18, 598.07 124.75 C601.77 129.31, 605.35 133.97, 608.8 138.72 C612.25 143.47, 615.58 148.32, 618.78 153.24 C621.97 158.17, 625.05 163.18, 627.98 168.27 C630.92 173.35, 633.72 178.52, 636.39 183.75 C639.05 188.98, 641.59 194.29, 643.97 199.65 C646.36 205.02, 648.61 210.45, 650.72 215.93 C652.82 221.41, 654.78 226.96, 656.6 232.54 C658.41 238.12, 660.08 243.76, 661.6 249.43 C663.12 255.1, 664.49 260.82, 665.72 266.57 C666.94 272.31, 668.01 278.09, 668.93 283.89 C669.84 289.69, 670.61 295.52, 671.23 301.36 C671.84 307.2, 672.3 313.06, 672.61 318.92 C672.92 324.78, 673.07 330.66, 673.07 336.53" stroke="transparent" stroke-width="1" fill="none"></path></g><g stroke-opacity="0.6" fill-opacity="0.6" stroke-linecap="round" transform="translate(186.38754461787175 533.7656255540367) rotate(0 163.3069429271677 22.496914998111038)"><path d="M11.25 0 C108.59 0, 205.94 0, 315.37 0 C322.86 0, 326.61 3.75, 326.61 11.25 C326.61 19.28, 326.61 27.32, 326.61 33.75 C326.61 41.24, 322.86 44.99, 315.37 44.99 C251.14 44.99, 186.92 44.99, 11.25 44.99 C3.75 44.99, 0 41.24, 0 33.75 C0 26.91, 0 20.07, 0 11.25 C0 3.75, 3.75 0, 11.25 0" stroke="none" stroke-width="0" fill="#868e96"></path><path d="M11.25 0 C100.63 0, 190.02 0, 315.37 0 M11.25 0 C89.92 0, 168.59 0, 315.37 0 M315.37 0 C322.86 0, 326.61 3.75, 326.61 11.25 M315.37 0 C322.86 0, 326.61 3.75, 326.61 11.25 M326.61 11.25 C326.61 19.76, 326.61 28.28, 326.61 33.75 M326.61 11.25 C326.61 17.34, 326.61 23.43, 326.61 33.75 M326.61 33.75 C326.61 41.24, 322.86 44.99, 315.37 44.99 M326.61 33.75 C326.61 41.24, 322.86 44.99, 315.37 44.99 M315.37 44.99 C247.66 44.99, 179.95 44.99, 11.25 44.99 M315.37 44.99 C210.28 44.99, 105.19 44.99, 11.25 44.99 M11.25 44.99 C3.75 44.99, 0 41.24, 0 33.75 M11.25 44.99 C3.75 44.99, 0 41.24, 0 33.75 M0 33.75 C0 26.42, 0 19.1, 0 11.25 M0 33.75 C0 29.23, 0 24.72, 0 11.25 M0 11.25 C0 3.75, 3.75 0, 11.25 0 M0 11.25 C0 3.75, 3.75 0, 11.25 0" stroke="transparent" stroke-width="4" fill="none"></path></g><g stroke-linecap="round" transform="translate(220.92147516804607 418.4954813082761) rotate(0 126.73356828355531 57.96782047050522)"><path d="M28.98 0 C92.44 0, 155.9 0, 224.48 0 C243.81 0, 253.47 9.66, 253.47 28.98 C253.47 51.45, 253.47 73.91, 253.47 86.95 C253.47 106.27, 243.81 115.94, 224.48 115.94 C182.85 115.94, 141.22 115.94, 28.98 115.94 C9.66 115.94, 0 106.27, 0 86.95 C0 71.6, 0 56.25, 0 28.98 C0 9.66, 9.66 0, 28.98 0" stroke="none" stroke-width="0" fill="#ced4da"></path><path d="M28.98 0 C104.91 0, 180.84 0, 224.48 0 M28.98 0 C90.01 0, 151.04 0, 224.48 0 M224.48 0 C243.81 0, 253.47 9.66, 253.47 28.98 M224.48 0 C243.81 0, 253.47 9.66, 253.47 28.98 M253.47 28.98 C253.47 43.02, 253.47 57.05, 253.47 86.95 M253.47 28.98 C253.47 47.31, 253.47 65.64, 253.47 86.95 M253.47 86.95 C253.47 106.27, 243.81 115.94, 224.48 115.94 M253.47 86.95 C253.47 106.27, 243.81 115.94, 224.48 115.94 M224.48 115.94 C169.47 115.94, 114.45 115.94, 28.98 115.94 M224.48 115.94 C177.88 115.94, 131.27 115.94, 28.98 115.94 M28.98 115.94 C9.66 115.94, 0 106.27, 0 86.95 M28.98 115.94 C9.66 115.94, 0 106.27, 0 86.95 M0 86.95 C0 63.97, 0 40.99, 0 28.98 M0 86.95 C0 69.91, 0 52.87, 0 28.98 M0 28.98 C0 9.66, 9.66 0, 28.98 0 M0 28.98 C0 9.66, 9.66 0, 28.98 0" stroke="transparent" stroke-width="4" fill="none"></path></g><g stroke-linecap="round" transform="translate(178.3182725366787 514.2546183228758) rotate(0 171.0619015845291 26.142350408266907)"><path d="M13.07 0 C89.99 0, 166.91 0, 329.05 0 C337.77 0, 342.12 4.36, 342.12 13.07 C342.12 19.62, 342.12 26.16, 342.12 39.21 C342.12 47.93, 337.77 52.28, 329.05 52.28 C236.5 52.28, 143.94 52.28, 13.07 52.28 C4.36 52.28, 0 47.93, 0 39.21 C0 32.79, 0 26.36, 0 13.07 C0 4.36, 4.36 0, 13.07 0" stroke="none" stroke-width="0" fill="#ffffff"></path><path d="M13.07 0 C110.76 0, 208.44 0, 329.05 0 M13.07 0 C100.6 0, 188.13 0, 329.05 0 M329.05 0 C337.77 0, 342.12 4.36, 342.12 13.07 M329.05 0 C337.77 0, 342.12 4.36, 342.12 13.07 M342.12 13.07 C342.12 22.11, 342.12 31.15, 342.12 39.21 M342.12 13.07 C342.12 22.04, 342.12 31.01, 342.12 39.21 M342.12 39.21 C342.12 47.93, 337.77 52.28, 329.05 52.28 M342.12 39.21 C342.12 47.93, 337.77 52.28, 329.05 52.28 M329.05 52.28 C219.41 52.28, 109.77 52.28, 13.07 52.28 M329.05 52.28 C234.9 52.28, 140.76 52.28, 13.07 52.28 M13.07 52.28 C4.36 52.28, 0 47.93, 0 39.21 M13.07 52.28 C4.36 52.28, 0 47.93, 0 39.21 M0 39.21 C0 33.96, 0 28.7, 0 13.07 M0 39.21 C0 30.36, 0 21.51, 0 13.07 M0 13.07 C0 4.36, 4.36 0, 13.07 0 M0 13.07 C0 4.36, 4.36 0, 13.07 0" stroke="transparent" stroke-width="4" fill="none"></path></g><g stroke-opacity="0.8" fill-opacity="0.8" stroke-linecap="round" transform="translate(153.75026851262237 309.6891157725024) rotate(0 194.18081345739688 85.30265521942658)"><path d="M32 0 C125.84 0, 219.68 0, 356.36 0 C377.69 0, 388.36 10.67, 388.36 32 C388.36 55.57, 388.36 79.13, 388.36 138.61 C388.36 159.94, 377.69 170.61, 356.36 170.61 C254.72 170.61, 153.09 170.61, 32 170.61 C10.67 170.61, 0 159.94, 0 138.61 C0 99.53, 0 60.45, 0 32 C0 10.67, 10.67 0, 32 0" stroke="none" stroke-width="0" fill="#868e96"></path><path d="M32 0 C161.65 0, 291.3 0, 356.36 0 M32 0 C102.56 0, 173.12 0, 356.36 0 M356.36 0 C377.69 0, 388.36 10.67, 388.36 32 M356.36 0 C377.69 0, 388.36 10.67, 388.36 32 M388.36 32 C388.36 63.89, 388.36 95.78, 388.36 138.61 M388.36 32 C388.36 59.8, 388.36 87.61, 388.36 138.61 M388.36 138.61 C388.36 159.94, 377.69 170.61, 356.36 170.61 M388.36 138.61 C388.36 159.94, 377.69 170.61, 356.36 170.61 M356.36 170.61 C277.07 170.61, 197.78 170.61, 32 170.61 M356.36 170.61 C266.59 170.61, 176.81 170.61, 32 170.61 M32 170.61 C10.67 170.61, 0 159.94, 0 138.61 M32 170.61 C10.67 170.61, 0 159.94, 0 138.61 M0 138.61 C0 109.62, 0 80.63, 0 32 M0 138.61 C0 101.08, 0 63.56, 0 32 M0 32 C0 10.67, 10.67 0, 32 0 M0 32 C0 10.67, 10.67 0, 32 0" stroke="transparent" stroke-width="4" fill="none"></path></g><g stroke-linecap="round" transform="translate(139.88666788440923 146.8423618484578) rotate(0 206.8655554045481 152.87591869182177)"><path d="M32 0 C150.35 0, 268.7 0, 381.73 0 C403.06 0, 413.73 10.67, 413.73 32 C413.73 128.02, 413.73 224.05, 413.73 273.75 C413.73 295.09, 403.06 305.75, 381.73 305.75 C295.48 305.75, 209.24 305.75, 32 305.75 C10.67 305.75, 0 295.09, 0 273.75 C0 177.92, 0 82.08, 0 32 C0 10.67, 10.67 0, 32 0" stroke="none" stroke-width="0" fill="#ffffff"></path><path d="M32 0 C115.36 0, 198.72 0, 381.73 0 M32 0 C164.82 0, 297.65 0, 381.73 0 M381.73 0 C403.06 0, 413.73 10.67, 413.73 32 M381.73 0 C403.06 0, 413.73 10.67, 413.73 32 M413.73 32 C413.73 86.19, 413.73 140.39, 413.73 273.75 M413.73 32 C413.73 112.1, 413.73 192.2, 413.73 273.75 M413.73 273.75 C413.73 295.09, 403.06 305.75, 381.73 305.75 M413.73 273.75 C413.73 295.09, 403.06 305.75, 381.73 305.75 M381.73 305.75 C305.55 305.75, 229.37 305.75, 32 305.75 M381.73 305.75 C276 305.75, 170.26 305.75, 32 305.75 M32 305.75 C10.67 305.75, 0 295.09, 0 273.75 M32 305.75 C10.67 305.75, 0 295.09, 0 273.75 M0 273.75 C0 218.59, 0 163.42, 0 32 M0 273.75 C0 218.38, 0 163.01, 0 32 M0 32 C0 10.67, 10.67 0, 32 0 M0 32 C0 10.67, 10.67 0, 32 0" stroke="#ffffff" stroke-width="4" fill="none"></path></g><g stroke-linecap="round" transform="translate(176.83817253775123 175.95702790973405) rotate(0 171.89679910558925 122.29738022058075)"><path d="M32 0 C101.72 0, 171.44 0, 311.79 0 C333.13 0, 343.79 10.67, 343.79 32 C343.79 73.39, 343.79 114.79, 343.79 212.59 C343.79 233.93, 333.13 244.59, 311.79 244.59 C219.75 244.59, 127.71 244.59, 32 244.59 C10.67 244.59, 0 233.93, 0 212.59 C0 174.35, 0 136.1, 0 32 C0 10.67, 10.67 0, 32 0" stroke="none" stroke-width="0" fill="#343a40"></path><path d="M32 0 C123.57 0, 215.14 0, 311.79 0 M32 0 C109.6 0, 187.19 0, 311.79 0 M311.79 0 C333.13 0, 343.79 10.67, 343.79 32 M311.79 0 C333.13 0, 343.79 10.67, 343.79 32 M343.79 32 C343.79 93.28, 343.79 154.55, 343.79 212.59 M343.79 32 C343.79 102.83, 343.79 173.65, 343.79 212.59 M343.79 212.59 C343.79 233.93, 333.13 244.59, 311.79 244.59 M343.79 212.59 C343.79 233.93, 333.13 244.59, 311.79 244.59 M311.79 244.59 C208.79 244.59, 105.78 244.59, 32 244.59 M311.79 244.59 C238.74 244.59, 165.69 244.59, 32 244.59 M32 244.59 C10.67 244.59, 0 233.93, 0 212.59 M32 244.59 C10.67 244.59, 0 233.93, 0 212.59 M0 212.59 C0 153.6, 0 94.6, 0 32 M0 212.59 C0 164, 0 115.4, 0 32 M0 32 C0 10.67, 10.67 0, 32 0 M0 32 C0 10.67, 10.67 0, 32 0" stroke="#ffffff" stroke-width="4" fill="none"></path></g></svg>